<svg xmlns="http://www.w3.org/2000/svg" viewBox="0 0 100 100" width="100" height="100">
  <defs>
    <linearGradient id="bg_harv" x1="0%" y1="0%" x2="100%" y2="100%">
      <stop offset="0%" stop-color="#0d1117"/>
      <stop offset="100%" stop-color="#05070a"/>
    </linearGradient>
  </defs>
  <rect x="8" y="8" width="84" height="84" rx="18" fill="url(#bg_harv)" stroke="#1e293b" stroke-width="2.5"/>
  <line x1="24" y1="8" x2="24" y2="92" stroke="#162438" stroke-width="1.2" stroke-opacity="0.6"/>
  <line x1="40" y1="8" x2="40" y2="92" stroke="#162438" stroke-width="1.2" stroke-opacity="0.6"/>
  <line x1="60" y1="8" x2="60" y2="92" stroke="#162438" stroke-width="1.2" stroke-opacity="0.6"/>
  <line x1="76" y1="8" x2="76" y2="92" stroke="#162438" stroke-width="1.2" stroke-opacity="0.6"/>
  <line x1="8" y1="24" x2="92" y2="24" stroke="#162438" stroke-width="1.2" stroke-opacity="0.6"/>
  <line x1="8" y1="40" x2="92" y2="40" stroke="#162438" stroke-width="1.2" stroke-opacity="0.6"/>
  <line x1="8" y1="60" x2="92" y2="60" stroke="#162438" stroke-width="1.2" stroke-opacity="0.6"/>
  <line x1="8" y1="76" x2="92" y2="76" stroke="#162438" stroke-width="1.2" stroke-opacity="0.6"/>
  <rect x="68" y="18" width="14" height="3" rx="1.5" fill="#38bdf8" fill-opacity="0.9"/>
  <rect x="68" y="24" width="14" height="3" rx="1.5" fill="#0284c7" fill-opacity="0.8"/>
  <rect x="68" y="30" width="14" height="3" rx="1.5" fill="#0369a1" fill-opacity="0.7"/>
  <path d="M22 64 C22 36 44 20 72 20" fill="none" stroke="#38bdf8" stroke-width="4" stroke-linecap="round"/>
  <path d="M34 68 C34 46 50 34 72 34" fill="none" stroke="#0284c7" stroke-width="3.5" stroke-linecap="round"/>
  <line x1="42" y1="48" x2="74" y2="76" stroke="#38bdf8" stroke-width="4" stroke-linecap="round"/>
  <circle cx="74" cy="76" r="7" fill="#0284c7" stroke="#38bdf8" stroke-width="2.5"/>
  <circle cx="28" cy="32" r="5" fill="#38bdf8"/>
  <circle cx="50" cy="22" r="4.5" fill="#00e5ff"/>
  <circle cx="76" cy="36" r="5" fill="#38bdf8"/>
  <rect x="18" y="66" width="26" height="16" rx="3" fill="#0b1320" stroke="#38bdf8" stroke-width="2.5"/>
  <polyline points="18,66 31,76 44,66" fill="none" stroke="#38bdf8" stroke-width="2"/>
</svg>